<?xml version="1.0" encoding="UTF-8" standalone="no"?>
<svg
   viewBox="45.153333 4.0833333 197.51376 219.61685"
   width="1377.7706"
   height="1956.1606"
   version="1.1"
   id="svg24"
   sodipodi:docname="astrojs.svg"
   inkscape:version="1.1.2 (0a00cf5339, 2022-02-04)"
   xmlns:inkscape="http://www.inkscape.org/namespaces/inkscape"
   xmlns:sodipodi="http://sodipodi.sourceforge.net/DTD/sodipodi-0.dtd"
   xmlns="http://www.w3.org/2000/svg"
   xmlns:svg="http://www.w3.org/2000/svg">
  <defs
     id="defs28" />
  <sodipodi:namedview
     id="namedview26"
     pagecolor="#ffffff"
     bordercolor="#666666"
     borderopacity="1.0"
     inkscape:pageshadow="2"
     inkscape:pageopacity="0.0"
     inkscape:pagecheckerboard="0"
     showgrid="false"
     inkscape:zoom="0.338"
     inkscape:cx="644.97041"
     inkscape:cy="976.33136"
     inkscape:window-width="1920"
     inkscape:window-height="1016"
     inkscape:window-x="0"
     inkscape:window-y="27"
     inkscape:window-maximized="1"
     inkscape:current-layer="svg24" />
  <g
     id="g856"
     transform="translate(-0.09228735,-30.512121)">
    <g
       fill="none"
       stroke-width="2"
       id="g10">
      <path
         d="m 219.46,117 c -1.46,0.82 -0.27,-3.13 -1.7,-1.57 -0.72,0.79 -0.2,2.52 0.42,3.21 a 1.09,1.07 -62.3 0 1 0.25,0.84 q -0.14,1.21 0.63,2 a 1.28,0.94 -73.7 0 1 0.3,0.83 l 0.01,1.67 a 0.68,0.52 84.7 0 1 -0.4,0.63 c -2.91,0.69 -2.49,-2.42 -4.47,-3.66 q -0.38,-0.24 -0.63,-0.7 c -1.46,-2.72 -3.63,1.39 -5.82,-1.67 a 0.61,0.58 -28.8 0 0 -0.72,-0.19 q -1.68,0.71 -3.02,-0.52 a 1.42,1.36 -21.1 0 0 -0.86,-0.36 q -1.41,-0.08 -2.27,-1.31 a 0.82,0.67 64.4 0 0 -0.75,-0.35 q -1.21,0.24 -1.92,1.14 a 0.67,0.61 -59.6 0 1 -0.74,0.23 q -2.49,-1.01 -4.2,-3.05 a 1.13,0.86 64.1 0 0 -0.81,-0.41 q -1.29,0.04 -2.06,1.01 a 0.4,0.39 41.3 0 1 -0.59,0.03 l -1.92,-1.91 a 1.13,0.82 -22.7 0 0 -0.89,-0.21 q -2.59,0.45 -5.12,-0.57 a 1.51,1.32 -39.9 0 0 -0.93,-0.02 q -3.55,1.08 -5.05,-2.44 a 1.5,0.96 82.7 0 0 -0.6,-0.72 q -0.9,-0.46 -1.98,-0.18 a 0.79,0.74 -26.2 0 1 -0.78,-0.24 q -2.16,-2.56 -5.17,-0.98 a 0.63,0.57 -31.7 0 1 -0.76,-0.14 L 166,106.16 a 0.61,0.57 -29.7 0 0 -0.71,-0.17 c -2.54,1.1 -4.21,-7.79 -4.75,-9.5 q -0.16,-0.51 -0.36,-0.02 c -0.98,2.36 1.08,3.2 0.28,5.28"
         stroke="#0b021e"
         id="path2" />
      <path
         d="m 130.71,90.98 q -1.92,1.62 -2.62,4.06 -0.05,0.19 -0.01,0 0.51,-2.72 -1.2,-4.46 a 1.07,0.86 -23.3 0 0 -0.85,-0.24 q -2.29,0.38 -2.72,-1.53 -0.09,-0.42 -0.39,-0.11 -1.62,1.74 -3.39,-0.09 a 0.43,0.4 -45.5 0 0 -0.6,0.03 q -0.44,0.48 -1.12,0.16 a 0.8,0.76 39.3 0 0 -0.8,0.06 q -1.07,0.76 -2.23,0.3 A 1.53,0.96 76.3 0 1 114.1,88.5 q -1.8,-3.27 -5.58,-3.48 a 1.61,1.05 56.9 0 1 -0.84,-0.37 q -0.6,-0.49 -1.51,-0.59 a 0.63,0.59 87.4 0 1 -0.54,-0.52 q -0.2,-1.22 -1.33,-1.5 a 0.87,0.71 -60.5 0 0 -0.79,0.31 q -0.92,1.15 -2.3,1.81 a 0.65,0.57 57.9 0 1 -0.74,-0.22 L 99.59,82.79 A 1.12,0.92 -15 0 0 98.78,82.42 Q 95.84,82.4 93.35,80.98 c -0.76,-0.43 -0.83,-1.37 -2.07,-1.15 a 1.24,0.95 -26.5 0 1 -0.87,-0.17 q -1.6,-1.14 -3.23,-0.21 a 1.04,0.72 -40.9 0 1 -0.89,0.1 l -1.67,-0.91 a 0.54,0.5 30.9 0 0 -0.67,0.14 q -0.65,0.95 -1.67,1.03 a 0.4,0.35 -84.3 0 1 -0.35,-0.5 L 84.15,70.3 Q 84.28,69.77 83.8,70.03 L 83,70.46"
         stroke="#0c021e"
         id="path4" />
      <path
         d="m 122,210.54 -1.02,0.54 a 0.54,0.53 62.9 0 0 -0.22,0.7 c 1.25,2.65 3.13,3.12 5.74,4.06 3.26,1.17 5.92,3.03 9.17,4.27 1.37,0.52 2.29,1.7 3.83,2.25 5.06,1.78 9.78,4.43 12.32,5.55 q 10.07,4.47 15.64,7.49 c 1.4,0.77 2.89,0.54 4.32,1.44 2.13,1.36 6.37,4.94 8.77,2.8 a 0.64,0.29 31.4 0 1 0.59,0.07 l 0.49,0.25"
         stroke="#ff5a04"
         id="path6" />
      <path
         d="m 188.29,231.25 q -0.38,-0.99 0,-2.03 a 0.47,0.46 -70.6 0 0 -0.28,-0.61 c -1.2,-0.39 -2.1,-1.17 -3.31,-1.4 -4,-0.75 -7.53,-3.46 -10.24,-4.66 Q 163.77,217.79 161,216 q -1.87,-1.19 -3.64,-1.44 c -2.46,-0.35 -4.22,-1.03 -6.36,-1.27"
         stroke="#ff510b"
         id="path8" />
    </g>
    <path
       d="m 219.46,117 c -1.46,0.82 -0.27,-3.13 -1.7,-1.57 -0.72,0.79 -0.2,2.52 0.42,3.21 a 1.09,1.07 -62.3 0 1 0.25,0.84 q -0.14,1.21 0.63,2 a 1.28,0.94 -73.7 0 1 0.3,0.83 l 0.01,1.67 a 0.68,0.52 84.7 0 1 -0.4,0.63 c -2.91,0.69 -2.49,-2.42 -4.47,-3.66 q -0.38,-0.24 -0.63,-0.7 c -1.46,-2.72 -3.63,1.39 -5.82,-1.67 a 0.61,0.58 -28.8 0 0 -0.72,-0.19 q -1.68,0.71 -3.02,-0.52 a 1.42,1.36 -21.1 0 0 -0.86,-0.36 q -1.41,-0.08 -2.27,-1.31 a 0.82,0.67 64.4 0 0 -0.75,-0.35 q -1.21,0.24 -1.92,1.14 a 0.67,0.61 -59.6 0 1 -0.74,0.23 q -2.49,-1.01 -4.2,-3.05 a 1.13,0.86 64.1 0 0 -0.81,-0.41 q -1.29,0.04 -2.06,1.01 a 0.4,0.39 41.3 0 1 -0.59,0.03 l -1.92,-1.91 a 1.13,0.82 -22.7 0 0 -0.89,-0.21 q -2.59,0.45 -5.12,-0.57 a 1.51,1.32 -39.9 0 0 -0.93,-0.02 q -3.55,1.08 -5.05,-2.44 a 1.5,0.96 82.7 0 0 -0.6,-0.72 q -0.9,-0.46 -1.98,-0.18 a 0.79,0.74 -26.2 0 1 -0.78,-0.24 q -2.16,-2.56 -5.17,-0.98 a 0.63,0.57 -31.7 0 1 -0.76,-0.14 L 166,106.16 a 0.61,0.57 -29.7 0 0 -0.71,-0.17 c -2.54,1.1 -4.21,-7.79 -4.75,-9.5 q -0.16,-0.51 -0.36,-0.02 c -0.98,2.36 1.08,3.2 0.28,5.28 Q 154.55,82.52 148.94,63.21 c -1.05,-3.61 -2.96,-7.95 -7.29,-5.06 q -1.55,1.03 -2.26,3.49 -4.25,14.71 -8.68,29.34 -1.92,1.62 -2.62,4.06 -0.05,0.19 -0.01,0 0.51,-2.72 -1.2,-4.46 a 1.07,0.86 -23.3 0 0 -0.85,-0.24 q -2.29,0.38 -2.72,-1.53 -0.09,-0.42 -0.39,-0.11 -1.62,1.74 -3.39,-0.09 a 0.43,0.4 -45.5 0 0 -0.6,0.03 q -0.44,0.48 -1.12,0.16 a 0.8,0.76 39.3 0 0 -0.8,0.06 q -1.07,0.76 -2.23,0.3 A 1.53,0.96 76.3 0 1 114.1,88.5 q -1.8,-3.27 -5.58,-3.48 a 1.61,1.05 56.9 0 1 -0.84,-0.37 q -0.6,-0.49 -1.51,-0.59 a 0.63,0.59 87.4 0 1 -0.54,-0.52 q -0.2,-1.22 -1.33,-1.5 a 0.87,0.71 -60.5 0 0 -0.79,0.31 q -0.92,1.15 -2.3,1.81 a 0.65,0.57 57.9 0 1 -0.74,-0.22 L 99.59,82.79 A 1.12,0.92 -15 0 0 98.78,82.42 Q 95.84,82.4 93.35,80.98 c -0.76,-0.43 -0.83,-1.37 -2.07,-1.15 a 1.24,0.95 -26.5 0 1 -0.87,-0.17 q -1.6,-1.14 -3.23,-0.21 a 1.04,0.72 -40.9 0 1 -0.89,0.1 l -1.67,-0.91 a 0.54,0.5 30.9 0 0 -0.67,0.14 q -0.65,0.95 -1.67,1.03 a 0.4,0.35 -84.3 0 1 -0.35,-0.5 L 84.15,70.3 Q 84.28,69.77 83.8,70.03 L 83,70.46 Q 96,26.8 99.45,16.98 C 102.37,8.69 109.22,4.74 117.84,4.53 Q 141.7,3.94 165.55,4.37 c 14.24,0.26 20.26,2.97 24.4,16.36 q 14.89,48.09 29.51,96.27 z"
       fill="#07011a"
       id="path12" />
    <path
       d="m 130.71,90.98 -23.78,80.97 a 1.25,1.25 -86.6 0 1 -0.99,0.88 q -31.46,5.55 -60.19,20.21 -0.67,0.35 -0.45,-0.37 L 83,70.46 83.8,70.03 q 0.48,-0.26 0.35,0.27 l -2.22,9.01 a 0.4,0.35 -84.3 0 0 0.35,0.5 q 1.02,-0.08 1.67,-1.03 a 0.54,0.5 30.9 0 1 0.67,-0.14 l 1.67,0.91 a 1.04,0.72 -40.9 0 0 0.89,-0.1 q 1.63,-0.93 3.23,0.21 a 1.24,0.95 -26.5 0 0 0.87,0.17 c 1.24,-0.22 1.31,0.72 2.07,1.15 q 2.49,1.42 5.43,1.44 a 1.12,0.92 -15 0 1 0.81,0.37 l 0.88,1.15 a 0.65,0.57 57.9 0 0 0.74,0.22 q 1.38,-0.66 2.3,-1.81 a 0.87,0.71 -60.5 0 1 0.79,-0.31 q 1.13,0.28 1.33,1.5 a 0.63,0.59 87.4 0 0 0.54,0.52 q 0.91,0.1 1.51,0.59 a 1.61,1.05 56.9 0 0 0.84,0.37 q 3.78,0.21 5.58,3.48 a 1.53,0.96 76.3 0 0 0.68,0.66 q 1.16,0.46 2.23,-0.3 a 0.8,0.76 39.3 0 1 0.8,-0.06 q 0.68,0.32 1.12,-0.16 a 0.43,0.4 -45.5 0 1 0.6,-0.03 q 1.77,1.83 3.39,0.09 0.3,-0.31 0.39,0.11 0.43,1.91 2.72,1.53 a 1.07,0.86 -23.3 0 1 0.85,0.24 q 1.71,1.74 1.2,4.46 -0.04,0.19 0.01,0 0.7,-2.44 2.62,-4.06 z"
       fill="#100322"
       id="path14" />
    <path
       d="m 219.46,117 23.25,75.78 q 0.2,0.65 -0.41,0.34 -28.56,-14.62 -60.16,-20.29 a 1.01,1 86.5 0 1 -0.78,-0.7 l -20.9,-70.38 c 0.8,-2.08 -1.26,-2.92 -0.28,-5.28 q 0.2,-0.49 0.36,0.02 c 0.54,1.71 2.21,10.6 4.75,9.5 a 0.61,0.57 -29.7 0 1 0.71,0.17 l 0.91,1.23 a 0.63,0.57 -31.7 0 0 0.76,0.14 q 3.01,-1.58 5.17,0.98 a 0.79,0.74 -26.2 0 0 0.78,0.24 q 1.08,-0.28 1.98,0.18 a 1.5,0.96 82.7 0 1 0.6,0.72 q 1.5,3.52 5.05,2.44 a 1.51,1.32 -39.9 0 1 0.93,0.02 q 2.53,1.02 5.12,0.57 a 1.13,0.82 -22.7 0 1 0.89,0.21 l 1.92,1.91 a 0.4,0.39 41.3 0 0 0.59,-0.03 q 0.77,-0.97 2.06,-1.01 a 1.13,0.86 64.1 0 1 0.81,0.41 q 1.71,2.04 4.2,3.05 a 0.67,0.61 -59.6 0 0 0.74,-0.23 q 0.71,-0.9 1.92,-1.14 a 0.82,0.67 64.4 0 1 0.75,0.35 q 0.86,1.23 2.27,1.31 a 1.42,1.36 -21.1 0 1 0.86,0.36 q 1.34,1.23 3.02,0.52 a 0.61,0.58 -28.8 0 1 0.72,0.19 c 2.19,3.06 4.36,-1.05 5.82,1.67 q 0.25,0.46 0.63,0.7 c 1.98,1.24 1.56,4.35 4.47,3.66 a 0.68,0.52 84.7 0 0 0.4,-0.63 l -0.01,-1.67 a 1.28,0.94 -73.7 0 0 -0.3,-0.83 q -0.77,-0.79 -0.63,-2 a 1.09,1.07 -62.3 0 0 -0.25,-0.84 c -0.62,-0.69 -1.14,-2.42 -0.42,-3.21 1.43,-1.56 0.24,2.39 1.7,1.57 z"
       fill="#0f0321"
       id="path16" />
    <path
       d="m 122,210.54 -1.02,0.54 a 0.54,0.53 62.9 0 0 -0.22,0.7 c 1.25,2.65 3.13,3.12 5.74,4.06 3.26,1.17 5.92,3.03 9.17,4.27 1.37,0.52 2.29,1.7 3.83,2.25 5.06,1.78 9.78,4.43 12.32,5.55 q 10.07,4.47 15.64,7.49 c 1.4,0.77 2.89,0.54 4.32,1.44 2.13,1.36 6.37,4.94 8.77,2.8 a 0.64,0.29 31.4 0 1 0.59,0.07 l 0.49,0.25 q -7.96,6.42 -16.56,11.96 c -11.86,7.63 -16.28,18.13 -10.33,32.13 q 0.36,0.84 -0.47,0.44 -15.3,-7.46 -18.84,-23.45 c -1.84,-8.35 1.99,-22.91 -8.43,-26.51 -8.51,-2.93 -17.11,2.4 -18.43,11.57 q -0.16,1.11 -0.89,0.26 C 95.73,232.53 93.01,214.39 97.56,196.97 q 0.22,-0.83 0.71,-0.12 c 5.2,7.55 15.16,11.42 23.73,13.69 z"
       fill="#ff5d01"
       id="path18" />
    <path
       d="m 188.29,231.25 q -0.38,-0.99 0,-2.03 a 0.47,0.46 -70.6 0 0 -0.28,-0.61 c -1.2,-0.39 -2.1,-1.17 -3.31,-1.4 -4,-0.75 -7.53,-3.46 -10.24,-4.66 Q 163.77,217.79 161,216 q -1.87,-1.19 -3.64,-1.44 c -2.46,-0.35 -4.22,-1.03 -6.36,-1.27 13.56,-0.25 29.17,-3.26 40.33,-11.47 a 0.47,0.47 -26 0 1 0.73,0.25 q 4.25,15.74 -3.77,29.18 z"
       fill="#ff4c0e"
       id="path20" />
    <path
       d="m 122,210.54 q 14.31,3.36 29,2.75 c 2.14,0.24 3.9,0.92 6.36,1.27 q 1.77,0.25 3.64,1.44 2.77,1.79 13.46,6.55 c 2.71,1.2 6.24,3.91 10.24,4.66 1.21,0.23 2.11,1.01 3.31,1.4 a 0.47,0.46 -70.6 0 1 0.28,0.61 q -0.38,1.04 0,2.03 -2.77,4.72 -6.66,8.71 l -0.49,-0.25 a 0.64,0.29 31.4 0 0 -0.59,-0.07 c -2.4,2.14 -6.64,-1.44 -8.77,-2.8 -1.43,-0.9 -2.92,-0.67 -4.32,-1.44 q -5.57,-3.02 -15.64,-7.49 c -2.54,-1.12 -7.26,-3.77 -12.32,-5.55 -1.54,-0.55 -2.46,-1.73 -3.83,-2.25 -3.25,-1.24 -5.91,-3.1 -9.17,-4.27 -2.61,-0.94 -4.49,-1.41 -5.74,-4.06 a 0.54,0.53 62.9 0 1 0.22,-0.7 z"
       fill="#ff5607"
       id="path22" />
  </g>
</svg>
